
<svg width="47px" height="42px" viewBox="0 0 47 42" version="1.1" xmlns="http://www.w3.org/2000/svg" xmlns:xlink="http://www.w3.org/1999/xlink">
    <!-- Generator: Sketch 51.2 (57519) - http://www.bohemiancoding.com/sketch -->
    <desc>Created with Sketch.</desc>
    <defs></defs>
    <g id="Page-1" stroke="none" stroke-width="1" fill="none" fill-rule="evenodd">
        <g id="Content_02" transform="translate(-52.000000, -95.000000)">
            <g id="folder_icon1" transform="translate(52.000000, 95.000000)">
                <path d="M44.785,41.199 L1.613,41.199 C0.723,41.199 0,40.476 0,39.582 L0,14 L46.398,14 L46.398,39.582 C46.398,40.476 45.676,41.199 44.785,41.199 Z" id="Fill-1" fill="#BFBFBF"></path>
                <path d="M20.816,6.398 L20.816,1.613 C20.816,0.723 20.094,0 19.199,0 L1.613,0 C0.723,0 0,0.723 0,1.613 L0,13.602 L46.398,13.602 L46.398,8.016 C46.398,7.125 45.676,6.398 44.785,6.398 L20.816,6.398 Z" id="Fill-2" fill="#959595"></path>
            </g>
        </g>
    </g>
</svg>