
<svg width="24px" height="25px" viewBox="0 0 24 25" version="1.1" xmlns="http://www.w3.org/2000/svg" xmlns:xlink="http://www.w3.org/1999/xlink">
    <!-- Generator: Sketch 51.2 (57519) - http://www.bohemiancoding.com/sketch -->
    <desc>Created with Sketch.</desc>
    <defs></defs>
    <g id="Page-1" stroke="none" stroke-width="1" fill="none" fill-rule="evenodd" fill-opacity="0.5">
        <g id="Content_02" transform="translate(-1575.000000, -238.000000)" fill="#000000">
            <g id="search" transform="translate(1575.000000, 238.000000)">
                <path d="M16.6689979,16.0092395 C18.2493646,14.3119606 19.2353092,12.0392933 19.2353092,9.53650117 C19.2353092,4.28637425 14.9291258,0 9.62251599,0 C4.31590618,0 0.0097228145,4.28637425 0.0097228145,9.53650117 C0.0097228145,14.7866281 4.31590618,19.0730023 9.62251599,19.0730023 C11.7828742,19.0730023 13.769194,18.36821 15.3785757,17.1743324 L22.526533,24.26556 C22.7005203,24.4381663 22.9180043,24.5244695 23.1354883,24.5244695 C23.3529723,24.5244695 23.5849382,24.4381663 23.7444435,24.26556 C24.077936,23.9347142 24.077936,23.3881612 23.7444435,23.0429485 L16.6689979,16.0092395 L16.6689979,16.0092395 Z M1.74959488,9.53650117 C1.74959488,5.23570921 5.27283582,1.72606356 9.62251599,1.72606356 C13.9577143,1.72606356 17.4954371,5.22134227 17.4954371,9.53650117 C17.4954371,13.8516601 13.9721962,17.3469388 9.62251599,17.3469388 C5.27283582,17.3469388 1.74959488,13.8372931 1.74959488,9.53650117 L1.74959488,9.53650117 Z" id="Shape"></path>
            </g>
        </g>
    </g>
</svg>