
<svg width="26px" height="25px" viewBox="0 0 26 25" version="1.1" xmlns="http://www.w3.org/2000/svg" xmlns:xlink="http://www.w3.org/1999/xlink">
    <!-- Generator: Sketch 51.2 (57519) - http://www.bohemiancoding.com/sketch -->
    <desc>Created with Sketch.</desc>
    <defs></defs>
    <g id="Page-1" stroke="none" stroke-width="1" fill="none" fill-rule="evenodd">
        <g id="Content_02" transform="translate(-1519.000000, -238.000000)" fill="#5E5E5D">
            <g id="controls-(1)" transform="translate(1519.000000, 238.000000)">
                <path d="M4.16665039,8.43751648 C6.46801758,8.43751648 8.33334961,6.5488678 8.33334961,4.21873352 C8.33334961,1.88864868 6.46801758,0 4.16665039,0 C1.86533203,0 0,1.88864868 0,4.21873352 C0,6.5488678 1.86533203,8.43751648 4.16665039,8.43751648 Z M4.17501807,6.87657074 C2.72508955,6.87657074 1.55004883,5.68684201 1.55004883,4.21872709 C1.55004883,2.75067447 2.72508955,1.56094574 4.17501807,1.56094574 C5.62500811,1.56094574 6.80004883,2.75067447 6.80004883,4.21872709 C6.80004883,5.68684201 5.62500811,6.87657074 4.17501807,6.87657074 L4.17501807,6.87657074 Z" id="Fill-1"></path>
                <path d="M21.1666504,16.4375165 C23.4680176,16.4375165 25.3333496,14.5488678 25.3333496,12.2187335 C25.3333496,9.88864868 23.4680176,8 21.1666504,8 C18.865332,8 17,9.88864868 17,12.2187335 C17,14.5488678 18.865332,16.4375165 21.1666504,16.4375165 Z M21.1750181,14.8765707 C19.7250896,14.8765707 18.5500488,13.686842 18.5500488,12.2187271 C18.5500488,10.7506745 19.7250896,9.56094574 21.1750181,9.56094574 C22.6250081,9.56094574 23.8000488,10.7506745 23.8000488,12.2187271 C23.8000488,13.686842 22.6250081,14.8765707 21.1750181,14.8765707 L21.1750181,14.8765707 Z" id="Fill-1"></path>
                <path d="M4.16665039,24.6875165 C6.46801758,24.6875165 8.33334961,22.7988678 8.33334961,20.4687335 C8.33334961,18.1386487 6.46801758,16.25 4.16665039,16.25 C1.86533203,16.25 0,18.1386487 0,20.4687335 C0,22.7988678 1.86533203,24.6875165 4.16665039,24.6875165 Z M4.17501807,23.1265707 C2.72508955,23.1265707 1.55004883,21.936842 1.55004883,20.4687271 C1.55004883,19.0006745 2.72508955,17.8109457 4.17501807,17.8109457 C5.62500811,17.8109457 6.80004883,19.0006745 6.80004883,20.4687271 C6.80004883,21.936842 5.62500811,23.1265707 4.17501807,23.1265707 L4.17501807,23.1265707 Z" id="Fill-1"></path>
                <path d="M17.7083496,12 L1.04165039,12 C0.466357422,12 0,12.3358099 0,12.7500176 C0,13.1642253 0.466357422,13.5 1.04165039,13.5 L17.7083496,13.5 C18.2836426,13.5 18.75,13.1642253 18.75,12.7500176 C18.75,12.3358099 18.2836426,12 17.7083496,12" id="Fill-7"></path>
                <path d="M24.7083496,3 L8.04165039,3 C7.46635742,3 7,3.33577472 7,3.74998242 C7,4.16419012 7.46635742,4.5 8.04165039,4.5 L24.7083496,4.5 C25.2836426,4.5 25.75,4.16419012 25.75,3.74998242 C25.75,3.33577472 25.2836426,3 24.7083496,3" id="Fill-9"></path>
                <path d="M24.7083496,20 L8.04165039,20 C7.46635742,20 7,20.3357747 7,20.7499824 C7,21.1641901 7.46635742,21.5 8.04165039,21.5 L24.7083496,21.5 C25.2836426,21.5 25.75,21.1641901 25.75,20.7499824 C25.75,20.3357747 25.2836426,20 24.7083496,20" id="Fill-9"></path>
            </g>
        </g>
    </g>
</svg>