
<svg width="30px" height="39px" viewBox="0 0 30 39" version="1.1" xmlns="http://www.w3.org/2000/svg" xmlns:xlink="http://www.w3.org/1999/xlink">
    <!-- Generator: Sketch 51.2 (57519) - http://www.bohemiancoding.com/sketch -->
    <desc>Created with Sketch.</desc>
    <defs></defs>
    <g id="Page-1" stroke="none" stroke-width="1" fill="none" fill-rule="evenodd">
        <g id="Content_02" transform="translate(-1235.000000, -231.000000)" fill="#646464">
            <g id="upload" transform="translate(1235.000000, 231.000000)">
                <path d="M19.9956122,0.029124031 L4.18887755,0.029124031 C1.87816327,0.029124031 0,1.88560465 0,4.16604651 L0,34.7623023 C0,37.0427442 1.87816327,38.8992248 4.18887755,38.8992248 L25.7565306,38.8992248 C28.0647959,38.8992248 29.9458163,37.0427442 29.9458163,34.7623023 L29.9458163,9.82044186 L19.9956122,0.029124031 Z M25.7565306,36.3644264 L4.18887755,36.3644264 C3.29357143,36.3644264 2.56540816,35.6464031 2.56540816,34.7623023 L2.56540816,4.16604651 C2.56540816,3.28305426 3.29357143,2.56503101 4.18887755,2.56503101 L19.0358163,2.5500155 L19.0358163,7.96910078 C19.0358163,9.55358915 20.3376531,10.8391783 21.9408163,10.8391783 L27.3186735,10.8242636 L27.3780612,34.7623023 C27.3780612,35.6464031 26.6521429,36.3644264 25.7565306,36.3644264 Z" id="Fill-1"></path>
                <path d="M15.5532653,13.1334264 C15.2327551,12.8157829 14.7118367,12.8157829 14.390102,13.1334264 L9.79193878,17.6749612 C9.55520408,17.9084574 9.48581633,18.2580465 9.61295918,18.5603721 C9.74173469,18.8638062 10.0403061,19.0618295 10.3722449,19.0618295 L12.3831633,19.0618295 L12.3831633,24.9520388 C12.3831633,25.5496357 12.8734694,26.0338605 13.4765306,26.0338605 L16.4664286,26.0338605 C17.0711224,26.0338605 17.5614286,25.5496357 17.5614286,24.9520388 L17.5614286,19.0618295 L19.5723469,19.0618295 C19.9042857,19.0618295 20.2040816,18.8638062 20.3328571,18.5603721 C20.4587755,18.2580465 20.3889796,17.9084574 20.1538776,17.6749612 L15.5532653,13.1334264 Z" id="Fill-2"></path>
            </g>
        </g>
    </g>
</svg>