
<svg width="24px" height="24px" viewBox="0 0 24 24" version="1.1" xmlns="http://www.w3.org/2000/svg" xmlns:xlink="http://www.w3.org/1999/xlink">
    <!-- Generator: Sketch 51.2 (57519) - http://www.bohemiancoding.com/sketch -->
    <desc>Created with Sketch.</desc>
    <defs></defs>
    <g id="Page-1" stroke="none" stroke-width="1" fill="none" fill-rule="evenodd">
        <g id="Content_02" transform="translate(-18.000000, -18.000000)" fill="#037DA6">
            <path d="M18,24 L23.9993952,24 L23.9993952,18 L18,18 L18,24 Z M27,42 L32.9993952,42 L32.9993952,36 L27,36 L27,42 Z M18,42 L23.9993952,42 L23.9993952,36 L18,36 L18,42 Z M18,33 L23.9993952,33 L23.9993952,27 L18,27 L18,33 Z M27,33 L32.9993952,33 L32.9993952,27 L27,27 L27,33 Z M36,24 L41.9993952,24 L41.9993952,18 L36,18 L36,24 Z M27,24 L32.9993952,24 L32.9993952,18 L27,18 L27,24 Z M36,33 L41.9993952,33 L41.9993952,27 L36,27 L36,33 Z M36,42 L41.9993952,42 L41.9993952,36 L36,36 L36,42 Z" id="show-apps-button"></path>
        </g>
    </g>
</svg>